<svg width="792" height="801" viewBox="0 0 792 801" fill="none" xmlns="http://www.w3.org/2000/svg">
<path d="M494 338.061C494 392.185 450.124 436.061 396 436.061C341.876 436.061 298 392.185 298 338.061C298 283.937 341.876 240.061 396 240.061C450.124 240.061 494 283.937 494 338.061Z" fill="white"/>
<path d="M252 416.061C252 456.378 219.317 489.061 179 489.061C138.683 489.061 106 456.378 106 416.061C106 375.744 138.683 343.061 179 343.061C219.317 343.061 252 375.744 252 416.061Z" fill="white"/>
<path d="M683 416.061C683 456.378 650.317 489.061 610 489.061C569.683 489.061 537 456.378 537 416.061C537 375.744 569.683 343.061 610 343.061C650.317 343.061 683 375.744 683 416.061Z" fill="white"/>
<path fill-rule="evenodd" clip-rule="evenodd" d="M14.7892 289.903L378.568 5.51641C387.939 -1.80954 401.086 -1.84177 410.493 5.43816L778.033 289.873C786.843 296.691 792 307.204 792 318.344V742.626C792 750.542 791.515 758.511 789.356 766.127C784.764 782.329 777.702 790.257 764.548 796.614C759.339 799.131 753.533 800.061 747.748 800.061H43.5146C39.5211 800.061 35.5159 799.604 31.7056 798.409C8.63231 791.168 2.16588 780.135 0 754.525L0.961434 318.185C0.985782 307.135 6.08361 296.708 14.7892 289.903ZM394.5 53.0611L48.8737 321.464L48.874 749.061H223.5V617.986C223.5 597.206 226.766 576.394 235.053 557.339C246.682 530.6 259.812 511.368 289.5 490.561C328.977 462.893 350.86 453.318 395.5 454.561C440.14 455.804 466.21 464.375 500 490.561C525.58 510.385 539.411 528.841 552.397 556.602C561.498 576.058 565 597.582 565 619.061V749.061H740V321.464L394.5 53.0611Z" fill="white"/>
<path d="M713 723.061H587.5C582.529 723.061 578.5 719.032 578.5 714.061V594.061C579.307 562.713 571.157 548.121 554.738 524.547C553.784 523.178 554.123 521.29 555.499 520.346L564.18 514.388C573.508 507.987 584.555 504.561 595.867 504.561H635.372C641.744 504.561 648.112 505.569 654.001 508.002C690.637 523.137 703.87 543.773 718.1 577.956C720.729 584.271 722 591.075 722 597.915V714.061C722 719.032 717.971 723.061 713 723.061Z" fill="white"/>
<path d="M77 723.561H202.5C207.471 723.561 211.5 719.532 211.5 714.561V594.561C210.693 563.213 218.843 548.621 235.262 525.047C236.216 523.678 235.877 521.79 234.501 520.846L225.82 514.888C216.492 508.487 205.445 505.061 194.133 505.061H154.628C148.256 505.061 141.888 506.069 135.999 508.502C99.3628 523.637 86.1305 544.273 71.9004 578.456C69.2715 584.771 68 591.575 68 598.415V714.561C68 719.532 72.0294 723.561 77 723.561Z" fill="white"/>
</svg>
